# File created by Blade
# Date/Time:  Fri Jan 16 17:45:47 2015
#---------------------------------------------------------
:version 1.10
:name HOM
:units
  mass 1.0
  length 1.000000
  angle deg
:documentation
     Acclaim Skeleton File
:root
   axis xyz
   order TX TY TZ RX RY RZ
   position 0.000000 0.000000 0.000000
   orientation 0 0 0
:bonedata
   begin
      id 1
      name Spine_dum
      direction 0.000000 1.000000 0.000000
      length 7.170412
      axis 0.0 0.0 0.0 xyz
   end
   begin
      id 2
      name LeftUpLeg_dum
      direction 1.000000 0.000000 0.000000
      length 4.318350
      axis 0.0 0.0 0.0 xyz
   end
   begin
      id 3
      name RightUpLeg_dum
      direction -1.000000 0.000000 0.000000
      length 4.318350
      axis 0.0 0.0 0.0 xyz
   end
   begin
      id 4
      name Spine
      direction 0.000000 1.000000 0.000000
      length 0.000000
      axis 0.0 0.0 0.0 xyz
      dof rx ry rz
   end
   begin
      id 5
      name Spine_dum1
      direction 0.000000 1.000000 0.000000
      length 14.276153
      axis 0.0 0.0 0.0 xyz
   end
   begin
      id 6
      name Spine_dum2
      direction 0.000000 1.000000 0.000000
      length 10.718243
      axis 0.0 0.0 0.0 xyz
   end
   begin
      id 7
      name Spine_dum3
      direction 0.000000 1.000000 0.000000
      length 10.718243
      axis 0.0 0.0 0.0 xyz
   end
   begin
      id 8
      name Head
      direction 0.000000 1.000000 0.000000
      length 4.527550
      axis 0.0 0.0 0.0 xyz
      dof rx ry rz
   end
   begin
      id 9
      name LeftShoulder
      direction 1.000000 0.000000 0.000000
      length 7.058872
      axis 0.0 0.0 -90.0 xyz
      dof rx ry rz
   end
   begin
      id 10
      name LeftArm
      direction 1.000000 0.000000 0.000000
      length 10.955525
      axis 0.0 0.0 -90.0 xyz
      dof rx ry rz
   end
   begin
      id 11
      name LeftForeArm
      direction 1.000000 0.000000 0.000000
      length 8.193716
      axis 0.0 0.0 -90.0 xyz
      dof ry rz rx
   end
   begin
      id 12
      name LeftHand
      direction 0.000000 0.000000 0.000000
      length 0.000000
      axis 0.0 0.0 -90.0 xyz
      dof rx ry rz
   end
   begin
      id 13
      name LeftHand_dum1
      direction 0.000000 0.000000 0.000000
      length 0.000000
      axis 0.0 0.0 -90.0 xyz
   end
   begin
      id 14
      name LeftHand_dum2
      direction 1.000000 0.000000 0.000000
      length 3.937000
      axis 0.0 0.0 -90.0 xyz
   end
   begin
      id 15
      name LeftHandThumb1
      direction 0.000000 0.000000 1.000000
      length 3.937000
      axis 0.0 0.0 -90.0 xyz
      dof rx rz ry
   end
   begin
      id 16
      name RightShoulder
      direction -1.000000 0.000000 0.000000
      length 7.058872
      axis 0.0 0.0 90.0 xyz
      dof rx ry rz
   end
   begin
      id 17
      name RightArm
      direction -1.000000 0.000000 0.000000
      length 10.955525
      axis 0.0 0.0 90.0 xyz
      dof rx ry rz
   end
   begin
      id 18
      name RightForeArm
      direction -1.000000 0.000000 0.000000
      length 8.193716
      axis 0.0 0.0 90.0 xyz
      dof ry rz rx
   end
   begin
      id 19
      name RightHand
      direction 0.000000 0.000000 0.000000
      length 0.000000
      axis 0.0 0.0 90.0 xyz
      dof rx ry rz
   end
   begin
      id 20
      name RightHand_dum1
      direction 0.000000 0.000000 0.000000
      length 0.000000
      axis 0.0 0.0 90.0 xyz
   end
   begin
      id 21
      name RightHand_dum2
      direction -1.000000 0.000000 0.000000
      length 3.937000
      axis 0.0 0.0 90.0 xyz
   end
   begin
      id 22
      name RightHandThumb1
      direction 0.000000 0.000000 1.000000
      length 3.937000
      axis 0.0 0.0 90.0 xyz
      dof rx rz ry
   end
   begin
      id 23
      name LeftUpLeg
      direction 0.000000 -1.000000 0.000000
      length 17.323638
      axis 0.0 0.0 0.0 xyz
      dof rx ry rz
   end
   begin
      id 24
      name LeftLeg
      direction 0.000000 -1.000000 0.000000
      length 16.270368
      axis 0.0 0.0 0.0 xyz
      dof rx ry rz
   end
   begin
      id 25
      name LeftFoot
      direction 0.000000 -0.258819 0.965926
      length 4.922846
      axis 15.0 0.0 0.0 xyz
      dof rx ry rz
   end
   begin
      id 26
      name LeftToeBase
      direction 0.000000 0.000000 1.000000
      length 2.952750
      axis 0.0 0.0 0.0 xyz
      dof rx ry rz
   end
   begin
      id 27
      name RightUpLeg
      direction 0.000000 -1.000000 0.000000
      length 17.323638
      axis 0.0 0.0 0.0 xyz
      dof rx ry rz
   end
   begin
      id 28
      name RightLeg
      direction 0.000000 -1.000000 0.000000
      length 16.270368
      axis 0.0 0.0 0.0 xyz
      dof rx ry rz
   end
   begin
      id 29
      name RightFoot
      direction 0.000000 -0.258819 0.965926
      length 4.922846
      axis 15.0 0.0 0.0 xyz
      dof rx ry rz
   end
   begin
      id 30
      name RightToeBase
      direction 0.000000 0.000000 1.000000
      length 2.952750
      axis 0.0 0.0 0.0 xyz
      dof rx ry rz
   end
:hierarchy
   begin
      root Spine_dum LeftUpLeg_dum RightUpLeg_dum
      Spine_dum Spine
      LeftUpLeg_dum LeftUpLeg
      RightUpLeg_dum RightUpLeg
      Spine Spine_dum1 Spine_dum2 Spine_dum3
      Spine_dum1 Head
      Spine_dum2 LeftShoulder
      Spine_dum3 RightShoulder
      LeftShoulder LeftArm
      LeftArm LeftForeArm
      LeftForeArm LeftHand
      LeftHand LeftHand_dum1 LeftHand_dum2
      LeftHand_dum1 LeftHandThumb1
      RightShoulder RightArm
      RightArm RightForeArm
      RightForeArm RightHand
      RightHand RightHand_dum1 RightHand_dum2
      RightHand_dum1 RightHandThumb1
      LeftUpLeg LeftLeg
      LeftLeg LeftFoot
      LeftFoot LeftToeBase
      RightUpLeg RightLeg
      RightLeg RightFoot
      RightFoot RightToeBase
   end

# File created by Blade
# Date/Time:  Fri Jan 16 17:45:28 2015
# Frame Rate: 120.000 fps
#------------------------------------------------------
:FULLY-SPECIFIED
:DEGREES
139
root -5.423074 35.252419 -9.799184 -0.224088 -5.496728 -5.854336
Spine -2.205295 0.037977 10.236999
Head -1.021120 6.207663 -7.879269
LeftShoulder -23.775378 13.478344 3.765407
LeftArm 30.963802 -55.606171 -32.812808
LeftForeArm 18.020631 -0.000000 5.642434
LeftHand -5.888239 -0.000000 -1.368320
LeftHandThumb1 -26.253704 0.000000 33.147579
RightShoulder -8.679788 16.453801 -20.792630
RightArm 1.527346 20.908195 15.338654
RightForeArm -38.220641 -0.000000 16.936536
RightHand -5.982825 -0.000000 12.052399
RightHandThumb1 -24.326973 -0.000000 -32.862282
LeftUpLeg 10.603073 15.166817 6.935941
LeftLeg -9.270257 -0.000000 0.000000
LeftFoot -15.576974 26.748592 -9.210273
LeftToeBase 22.602717 -0.000000 -0.000000
RightUpLeg 7.091305 -3.922773 4.158560
RightLeg -4.631479 -0.000000 0.000000
RightFoot -4.480513 -27.527793 4.205541
RightToeBase 13.385980 -0.000000 -0.000000
140
root -5.421885 35.252317 -9.799838 -0.233557 -5.500080 -5.853231
Spine -2.188907 0.027094 10.241109
Head -1.014418 6.235301 -7.874138
LeftShoulder -23.782960 13.482394 3.777904
LeftArm 30.964735 -55.590122 -32.825379
LeftForeArm 18.030730 -0.000000 5.643108
LeftHand -5.871571 -0.000000 -1.376103
LeftHandThumb1 -26.253704 0.000000 33.147579
RightShoulder -8.679723 16.450348 -20.791491
RightArm 1.545535 20.914884 15.358280
RightForeArm -38.221768 -0.000000 16.938271
RightHand -5.971243 -0.000000 12.056787
RightHandThumb1 -24.326973 -0.000000 -32.862282
LeftUpLeg 10.609701 15.177669 6.935245
LeftLeg -9.266631 -0.000000 0.000000
LeftFoot -15.582858 26.741069 -9.213764
LeftToeBase 22.576000 -0.000000 -0.000000
RightUpLeg 7.097492 -3.930799 4.156625
RightLeg -4.630394 -0.000000 0.000000
RightFoot -4.472872 -27.527500 4.183255
RightToeBase 13.406279 -0.000000 -0.000000
141
root -5.420109 35.252717 -9.801592 -0.243908 -5.503473 -5.849822
Spine -2.169382 0.024929 10.239520
Head -1.001781 6.253201 -7.854734
LeftShoulder -23.763231 13.481523 3.785932
LeftArm 30.931323 -55.595738 -32.792494
LeftForeArm 18.043673 0.000000 5.645694
LeftHand -5.942613 0.000000 -1.413628
LeftHandThumb1 -26.253704 0.000000 33.147579
RightShoulder -8.676844 16.443743 -20.779996
RightArm 1.555496 20.889668 15.358054
RightForeArm -38.218060 -0.000000 16.922381
RightHand -5.955936 0.000000 12.022498
RightHandThumb1 -24.326973 -0.000000 -32.862282
LeftUpLeg 10.617646 15.186196 6.932027
LeftLeg -9.269279 -0.000000 0.000000
LeftFoot -15.559937 26.710025 -9.299884
LeftToeBase 22.438877 -0.000000 -0.000000
RightUpLeg 7.101882 -3.922600 4.151361
RightLeg -4.626548 -0.000000 0.000000
RightFoot -4.468058 -27.531105 4.162154
RightToeBase 13.461534 -0.000000 -0.000000
142
root -5.419099 35.252835 -9.803085 -0.251630 -5.497202 -5.843821
Spine -2.154628 0.009605 10.222948
Head -0.992177 6.123106 -7.889148
LeftShoulder -23.779735 13.480105 3.824484
LeftArm 30.963600 -55.563247 -32.838488
LeftForeArm 18.021592 0.000000 5.635503
LeftHand -5.901387 -0.000000 -1.357273
LeftHandThumb1 -26.253704 0.000000 33.147579
RightShoulder -8.667979 16.429559 -20.739551
RightArm 1.568348 20.859808 15.335749
RightForeArm -38.209131 -0.000000 16.909874
RightHand -5.957815 -0.000000 12.043435
RightHandThumb1 -24.326973 -0.000000 -32.862282
LeftUpLeg 10.618355 15.156554 6.923093
LeftLeg -9.261933 -0.000000 0.000000
LeftFoot -15.570651 26.756085 -9.220924
LeftToeBase 22.574527 -0.000000 -0.000000
RightUpLeg 7.103938 -3.938837 4.142724
RightLeg -4.620243 -0.000000 0.000000
RightFoot -4.464406 -27.534011 4.134846
RightToeBase 13.481639 -0.000000 -0.000000
143
root -5.416947 35.253197 -9.805494 -0.254696 -5.506817 -5.842288
Spine -2.140431 0.014802 10.226685
Head -0.981734 6.112255 -7.890966
LeftShoulder -23.779171 13.492519 3.827335
LeftArm 31.001765 -55.595115 -32.879688
LeftForeArm 18.044772 0.000000 5.636671
LeftHand -5.907132 -0.000000 -1.347285
LeftHandThumb1 -26.253704 0.000000 33.147579
RightShoulder -8.667291 16.427817 -20.732425
RightArm 1.578315 20.822323 15.333682
RightForeArm -38.204542 -0.000000 16.901275
RightHand -5.967727 -0.000000 12.053632
RightHandThumb1 -24.326973 -0.000000 -32.862282
LeftUpLeg 10.612726 15.173904 6.920116
LeftLeg -9.245819 -0.000000 0.000000
LeftFoot -15.577869 26.742294 -9.220391
LeftToeBase 22.571260 -0.000000 -0.000000
RightUpLeg 7.095711 -3.930203 4.138969
RightLeg -4.607973 -0.000000 0.000000
RightFoot -4.476833 -27.529781 4.170057
RightToeBase 13.444371 -0.000000 -0.000000
144
root -5.415917 35.253499 -9.807382 -0.263547 -5.506588 -5.841499
Spine -2.125595 0.011741 10.244526
Head -0.961640 6.125020 -7.913329
LeftShoulder -23.759302 13.508871 3.819606
LeftArm 30.981301 -55.606555 -32.864985
LeftForeArm 18.038948 -0.000000 5.626256
LeftHand -5.881920 -0.000000 -1.373973
LeftHandThumb1 -26.253704 0.000000 33.147579
RightShoulder -8.657245 16.379647 -20.710016
RightArm 1.596704 20.828439 15.277135
RightForeArm -38.204749 0.000000 16.776227
RightHand -5.599729 0.000000 11.840393
RightHandThumb1 -24.326973 -0.000000 -32.862282
LeftUpLeg 10.620627 15.184600 6.920813
LeftLeg -9.249881 -0.000000 0.000000
LeftFoot -15.577222 26.729926 -9.231325
LeftToeBase 22.582053 -0.000000 -0.000000
RightUpLeg 7.100642 -3.942387 4.136683
RightLeg -4.607695 -0.000000 0.000000
RightFoot -4.464611 -27.524225 4.146890
RightToeBase 13.452058 -0.000000 -0.000000
